<?xml version="1.0" encoding="us-ascii" standalone="no"?><svg xmlns="http://www.w3.org/2000/svg" xmlns:xlink="http://www.w3.org/1999/xlink" contentStyleType="text/css" height="278px" preserveAspectRatio="none" style="width:187px;height:278px;background:#FFFFFF;" version="1.1" viewBox="0 0 187 278" width="187px" zoomAndPan="magnify"><defs/><g><!--class Animal--><g id="elem_Animal"><rect codeLine="1" fill="#F1F1F1" height="48" id="Animal" rx="2.5" ry="2.5" style="stroke:#181818;stroke-width:0.5;" width="77" x="46" y="115"/><ellipse cx="61" cy="131" fill="#ADD1B2" rx="11" ry="11" style="stroke:#181818;stroke-width:1.0;"/><path d="M63.9688,136.6406 Q63.3906,136.9375 62.75,137.0781 Q62.1094,137.2344 61.4063,137.2344 Q58.9063,137.2344 57.5781,135.5938 Q56.2656,133.9375 56.2656,130.8125 Q56.2656,127.6875 57.5781,126.0313 Q58.9063,124.375 61.4063,124.375 Q62.1094,124.375 62.75,124.5313 Q63.4063,124.6875 63.9688,124.9844 L63.9688,127.7031 Q63.3438,127.125 62.75,126.8594 Q62.1563,126.5781 61.5313,126.5781 Q60.1875,126.5781 59.5,127.6563 Q58.8125,128.7188 58.8125,130.8125 Q58.8125,132.9063 59.5,133.9844 Q60.1875,135.0469 61.5313,135.0469 Q62.1563,135.0469 62.75,134.7813 Q63.3438,134.5 63.9688,133.9219 L63.9688,136.6406 Z " fill="#000000"/><text fill="#000000" font-family="sans-serif" font-size="14" lengthAdjust="spacing" textLength="45" x="75" y="135.8467">Animal</text><line style="stroke:#181818;stroke-width:0.5;" x1="47" x2="122" y1="147" y2="147"/><line style="stroke:#181818;stroke-width:0.5;" x1="47" x2="122" y1="155" y2="155"/></g><!--class Dog--><g id="elem_Dog"><rect codeLine="2" fill="#F1F1F1" height="48" id="Dog" rx="2.5" ry="2.5" style="stroke:#181818;stroke-width:0.5;" width="61" x="7" y="223"/><ellipse cx="22" cy="239" fill="#ADD1B2" rx="11" ry="11" style="stroke:#181818;stroke-width:1.0;"/><path d="M24.9688,244.6406 Q24.3906,244.9375 23.75,245.0781 Q23.1094,245.2344 22.4063,245.2344 Q19.9063,245.2344 18.5781,243.5938 Q17.2656,241.9375 17.2656,238.8125 Q17.2656,235.6875 18.5781,234.0313 Q19.9063,232.375 22.4063,232.375 Q23.1094,232.375 23.75,232.5313 Q24.4063,232.6875 24.9688,232.9844 L24.9688,235.7031 Q24.3438,235.125 23.75,234.8594 Q23.1563,234.5781 22.5313,234.5781 Q21.1875,234.5781 20.5,235.6563 Q19.8125,236.7188 19.8125,238.8125 Q19.8125,240.9063 20.5,241.9844 Q21.1875,243.0469 22.5313,243.0469 Q23.1563,243.0469 23.75,242.7813 Q24.3438,242.5 24.9688,241.9219 L24.9688,244.6406 Z " fill="#000000"/><text fill="#000000" font-family="sans-serif" font-size="14" lengthAdjust="spacing" textLength="29" x="36" y="243.8467">Dog</text><line style="stroke:#181818;stroke-width:0.5;" x1="8" x2="67" y1="255" y2="255"/><line style="stroke:#181818;stroke-width:0.5;" x1="8" x2="67" y1="263" y2="263"/></g><!--class Cat--><g id="elem_Cat"><rect codeLine="3" fill="#F1F1F1" height="48" id="Cat" rx="2.5" ry="2.5" style="stroke:#181818;stroke-width:0.5;" width="55" x="125" y="223"/><ellipse cx="140" cy="239" fill="#ADD1B2" rx="11" ry="11" style="stroke:#181818;stroke-width:1.0;"/><path d="M142.9688,244.6406 Q142.3906,244.9375 141.75,245.0781 Q141.1094,245.2344 140.4063,245.2344 Q137.9063,245.2344 136.5781,243.5938 Q135.2656,241.9375 135.2656,238.8125 Q135.2656,235.6875 136.5781,234.0313 Q137.9063,232.375 140.4063,232.375 Q141.1094,232.375 141.75,232.5313 Q142.4063,232.6875 142.9688,232.9844 L142.9688,235.7031 Q142.3438,235.125 141.75,234.8594 Q141.1563,234.5781 140.5313,234.5781 Q139.1875,234.5781 138.5,235.6563 Q137.8125,236.7188 137.8125,238.8125 Q137.8125,240.9063 138.5,241.9844 Q139.1875,243.0469 140.5313,243.0469 Q141.1563,243.0469 141.75,242.7813 Q142.3438,242.5 142.9688,241.9219 L142.9688,244.6406 Z " fill="#000000"/><text fill="#000000" font-family="sans-serif" font-size="14" lengthAdjust="spacing" textLength="23" x="154" y="243.8467">Cat</text><line style="stroke:#181818;stroke-width:0.5;" x1="126" x2="179" y1="255" y2="255"/><line style="stroke:#181818;stroke-width:0.5;" x1="126" x2="179" y1="263" y2="263"/></g><!--class Main--><g id="elem_Main"><rect codeLine="4" fill="#F1F1F1" height="48" id="Main" rx="2.5" ry="2.5" style="stroke:#181818;stroke-width:0.5;" width="64" x="52.5" y="7"/><ellipse cx="67.5" cy="23" fill="#ADD1B2" rx="11" ry="11" style="stroke:#181818;stroke-width:1.0;"/><path d="M70.4688,28.6406 Q69.8906,28.9375 69.25,29.0781 Q68.6094,29.2344 67.9063,29.2344 Q65.4063,29.2344 64.0781,27.5938 Q62.7656,25.9375 62.7656,22.8125 Q62.7656,19.6875 64.0781,18.0313 Q65.4063,16.375 67.9063,16.375 Q68.6094,16.375 69.25,16.5313 Q69.9063,16.6875 70.4688,16.9844 L70.4688,19.7031 Q69.8438,19.125 69.25,18.8594 Q68.6563,18.5781 68.0313,18.5781 Q66.6875,18.5781 66,19.6563 Q65.3125,20.7188 65.3125,22.8125 Q65.3125,24.9063 66,25.9844 Q66.6875,27.0469 68.0313,27.0469 Q68.6563,27.0469 69.25,26.7813 Q69.8438,26.5 70.4688,25.9219 L70.4688,28.6406 Z " fill="#000000"/><text fill="#000000" font-family="sans-serif" font-size="14" lengthAdjust="spacing" textLength="32" x="81.5" y="27.8467">Main</text><line style="stroke:#181818;stroke-width:0.5;" x1="53.5" x2="115.5" y1="39" y2="39"/><line style="stroke:#181818;stroke-width:0.5;" x1="53.5" x2="115.5" y1="47" y2="47"/></g><!--reverse link Animal to Dog--><g id="link_Animal_Dog"><path codeLine="5" d="M66.8933,179.7147 C59.0533,197.3947 55.62,205.13 47.79,222.79 " fill="none" id="Animal-backto-Dog" style="stroke:#181818;stroke-width:1.0;"/><polygon fill="none" points="74.19,163.26,61.4084,177.2825,72.3782,182.147,74.19,163.26" style="stroke:#181818;stroke-width:1.0;"/></g><!--reverse link Animal to Cat--><g id="link_Animal_Cat"><path codeLine="6" d="M109.138,178.4112 C120.478,196.0912 126.28,205.13 137.61,222.79 " fill="none" id="Animal-backto-Cat" style="stroke:#181818;stroke-width:1.0;"/><polygon fill="none" points="99.42,163.26,104.0876,181.6506,114.1884,175.1719,99.42,163.26" style="stroke:#181818;stroke-width:1.0;"/></g><!--link Main to Animal--><g id="link_Main_Animal"><path codeLine="7" d="M84.5,55.26 C84.5,72.94 84.5,91.13 84.5,108.79 " fill="none" id="Main-to-Animal" style="stroke:#181818;stroke-width:1.0;"/><polygon fill="#181818" points="84.5,114.79,88.5,105.79,84.5,109.79,80.5,105.79,84.5,114.79" style="stroke:#181818;stroke-width:1.0;"/></g><!--link Main to Dog--><g id="link_Main_Dog"><path codeLine="8" d="M63.11,55.41 C50.34,71.03 35.31,92.73 28.5,115 C17.37,151.41 23.1951,190.2244 29.5651,216.8744 " fill="none" id="Main-to-Dog" style="stroke:#181818;stroke-width:1.0;stroke-dasharray:7.0,7.0;"/><polygon fill="#181818" points="30.96,222.71,32.7581,213.0267,29.7976,217.847,24.9773,214.8865,30.96,222.71" style="stroke:#181818;stroke-width:1.0;"/></g><!--link Main to Cat--><g id="link_Main_Cat"><path codeLine="9" d="M104.92,55.28 C117.48,71.02 132.62,92.9 140.5,115 C153.31,150.93 154.6688,189.7321 153.9588,216.5421 " fill="none" id="Main-to-Cat" style="stroke:#181818;stroke-width:1.0;stroke-dasharray:7.0,7.0;"/><polygon fill="#181818" points="153.8,222.54,158.0369,213.649,153.9324,217.5418,150.0397,213.4373,153.8,222.54" style="stroke:#181818;stroke-width:1.0;"/></g><!--SRC=[Iyv9B2vMSCpBp4tCuKe6Srpoqw4ivyGIACitCJEF2w9AmQP6LnUi29aFKWfIfA2hQmSp3ipNqxC3AuPpW2e1]--></g></svg>